G04 #@! TF.FileFunction,Legend,Top*
%FSLAX46Y46*%
G04 Gerber Fmt 4.6, Leading zero omitted, Abs format (unit mm)*
G04 Created by KiCad (PCBNEW 4.0.5+dfsg1-4) date Tue Jun 30 20:55:17 2020*
%MOMM*%
%LPD*%
G01*
G04 APERTURE LIST*
%ADD10C,0.100000*%
%ADD11C,0.150000*%
G04 APERTURE END LIST*
D10*
D11*
X144938000Y-63408000D02*
X145638000Y-63408000D01*
X145638000Y-64608000D02*
X144938000Y-64608000D01*
X152149100Y-63968600D02*
X150949100Y-63968600D01*
X150949100Y-62218600D02*
X152149100Y-62218600D01*
X149444000Y-59549000D02*
X148244000Y-59549000D01*
X148244000Y-57799000D02*
X149444000Y-57799000D01*
X145720000Y-68822000D02*
X148420000Y-68822000D01*
X145720000Y-67322000D02*
X148420000Y-67322000D01*
X147220000Y-68222000D02*
X147220000Y-67972000D01*
X147220000Y-67972000D02*
X147070000Y-68122000D01*
X146970000Y-67722000D02*
X146970000Y-68422000D01*
X147320000Y-68072000D02*
X147670000Y-68072000D01*
X146970000Y-68072000D02*
X147320000Y-67722000D01*
X147320000Y-67722000D02*
X147320000Y-68422000D01*
X147320000Y-68422000D02*
X146970000Y-68072000D01*
X155880000Y-69076000D02*
X158580000Y-69076000D01*
X155880000Y-67576000D02*
X158580000Y-67576000D01*
X157380000Y-68476000D02*
X157380000Y-68226000D01*
X157380000Y-68226000D02*
X157230000Y-68376000D01*
X157130000Y-67976000D02*
X157130000Y-68676000D01*
X157480000Y-68326000D02*
X157830000Y-68326000D01*
X157130000Y-68326000D02*
X157480000Y-67976000D01*
X157480000Y-67976000D02*
X157480000Y-68676000D01*
X157480000Y-68676000D02*
X157130000Y-68326000D01*
X162718000Y-66202000D02*
X163418000Y-66202000D01*
X163418000Y-67402000D02*
X162718000Y-67402000D01*
X153254000Y-68693000D02*
X152054000Y-68693000D01*
X152054000Y-66943000D02*
X153254000Y-66943000D01*
X169858000Y-60524000D02*
G75*
G03X169858000Y-60524000I-1000000J0D01*
G01*
X167658000Y-58724000D02*
X170058000Y-58724000D01*
X167058000Y-59324000D02*
X167658000Y-58724000D01*
X167058000Y-61724000D02*
X167058000Y-59324000D01*
X167658000Y-62324000D02*
X167058000Y-61724000D01*
X170058000Y-62324000D02*
X167658000Y-62324000D01*
X170658000Y-61724000D02*
X170058000Y-62324000D01*
X170658000Y-59324000D02*
X170658000Y-61724000D01*
X170058000Y-58724000D02*
X170658000Y-59324000D01*
X167408000Y-57824000D02*
X170308000Y-57824000D01*
X166958000Y-58274000D02*
X167408000Y-57824000D01*
X166158000Y-61524000D02*
X166158000Y-59524000D01*
X167408000Y-63224000D02*
X166958000Y-62774000D01*
X170308000Y-63224000D02*
X167408000Y-63224000D01*
X170758000Y-62774000D02*
X170308000Y-63224000D01*
X171558000Y-59524000D02*
X171558000Y-61524000D01*
X170308000Y-57824000D02*
X170758000Y-58274000D01*
X153373000Y-52035000D02*
X153373000Y-52085000D01*
X157523000Y-52035000D02*
X157523000Y-52180000D01*
X157523000Y-57185000D02*
X157523000Y-57040000D01*
X153373000Y-57185000D02*
X153373000Y-57040000D01*
X153373000Y-52035000D02*
X157523000Y-52035000D01*
X153373000Y-57185000D02*
X157523000Y-57185000D01*
X153373000Y-52085000D02*
X151973000Y-52085000D01*
X142978000Y-54014000D02*
X141978000Y-54014000D01*
X141978000Y-55714000D02*
X142978000Y-55714000D01*
D10*
X111614000Y-51390000D02*
X111614000Y-54690000D01*
X134214000Y-51390000D02*
X134214000Y-54690000D01*
X111614000Y-64690000D02*
X111614000Y-67990000D01*
X134214000Y-67990000D02*
X134214000Y-64690000D01*
X111614000Y-51390000D02*
X134214000Y-51390000D01*
X111614000Y-67990000D02*
X134214000Y-67990000D01*
X111614000Y-74250000D02*
X111614000Y-77550000D01*
X134214000Y-74250000D02*
X134214000Y-77550000D01*
X111614000Y-87550000D02*
X111614000Y-90850000D01*
X134214000Y-90850000D02*
X134214000Y-87550000D01*
X111614000Y-74250000D02*
X134214000Y-74250000D01*
X111614000Y-90850000D02*
X134214000Y-90850000D01*
D11*
X169858000Y-83384000D02*
G75*
G03X169858000Y-83384000I-1000000J0D01*
G01*
X167658000Y-81584000D02*
X170058000Y-81584000D01*
X167058000Y-82184000D02*
X167658000Y-81584000D01*
X167058000Y-84584000D02*
X167058000Y-82184000D01*
X167658000Y-85184000D02*
X167058000Y-84584000D01*
X170058000Y-85184000D02*
X167658000Y-85184000D01*
X170658000Y-84584000D02*
X170058000Y-85184000D01*
X170658000Y-82184000D02*
X170658000Y-84584000D01*
X170058000Y-81584000D02*
X170658000Y-82184000D01*
X167408000Y-80684000D02*
X170308000Y-80684000D01*
X166958000Y-81134000D02*
X167408000Y-80684000D01*
X166158000Y-84384000D02*
X166158000Y-82384000D01*
X167408000Y-86084000D02*
X166958000Y-85634000D01*
X170308000Y-86084000D02*
X167408000Y-86084000D01*
X170758000Y-85634000D02*
X170308000Y-86084000D01*
X171558000Y-82384000D02*
X171558000Y-84384000D01*
X170308000Y-80684000D02*
X170758000Y-81134000D01*
X162718000Y-89062000D02*
X163418000Y-89062000D01*
X163418000Y-90262000D02*
X162718000Y-90262000D01*
X142978000Y-76874000D02*
X141978000Y-76874000D01*
X141978000Y-78574000D02*
X142978000Y-78574000D01*
X149444000Y-82409000D02*
X148244000Y-82409000D01*
X148244000Y-80659000D02*
X149444000Y-80659000D01*
X153373000Y-74895000D02*
X153373000Y-74945000D01*
X157523000Y-74895000D02*
X157523000Y-75040000D01*
X157523000Y-80045000D02*
X157523000Y-79900000D01*
X153373000Y-80045000D02*
X153373000Y-79900000D01*
X153373000Y-74895000D02*
X157523000Y-74895000D01*
X153373000Y-80045000D02*
X157523000Y-80045000D01*
X153373000Y-74945000D02*
X151973000Y-74945000D01*
X144938000Y-86268000D02*
X145638000Y-86268000D01*
X145638000Y-87468000D02*
X144938000Y-87468000D01*
X153254000Y-91553000D02*
X152054000Y-91553000D01*
X152054000Y-89803000D02*
X153254000Y-89803000D01*
X152149100Y-86828600D02*
X150949100Y-86828600D01*
X150949100Y-85078600D02*
X152149100Y-85078600D01*
X145720000Y-91682000D02*
X148420000Y-91682000D01*
X145720000Y-90182000D02*
X148420000Y-90182000D01*
X147220000Y-91082000D02*
X147220000Y-90832000D01*
X147220000Y-90832000D02*
X147070000Y-90982000D01*
X146970000Y-90582000D02*
X146970000Y-91282000D01*
X147320000Y-90932000D02*
X147670000Y-90932000D01*
X146970000Y-90932000D02*
X147320000Y-90582000D01*
X147320000Y-90582000D02*
X147320000Y-91282000D01*
X147320000Y-91282000D02*
X146970000Y-90932000D01*
X155880000Y-91936000D02*
X158580000Y-91936000D01*
X155880000Y-90436000D02*
X158580000Y-90436000D01*
X157380000Y-91336000D02*
X157380000Y-91086000D01*
X157380000Y-91086000D02*
X157230000Y-91236000D01*
X157130000Y-90836000D02*
X157130000Y-91536000D01*
X157480000Y-91186000D02*
X157830000Y-91186000D01*
X157130000Y-91186000D02*
X157480000Y-90836000D01*
X157480000Y-90836000D02*
X157480000Y-91536000D01*
X157480000Y-91536000D02*
X157130000Y-91186000D01*
X169858000Y-106244000D02*
G75*
G03X169858000Y-106244000I-1000000J0D01*
G01*
X167658000Y-104444000D02*
X170058000Y-104444000D01*
X167058000Y-105044000D02*
X167658000Y-104444000D01*
X167058000Y-107444000D02*
X167058000Y-105044000D01*
X167658000Y-108044000D02*
X167058000Y-107444000D01*
X170058000Y-108044000D02*
X167658000Y-108044000D01*
X170658000Y-107444000D02*
X170058000Y-108044000D01*
X170658000Y-105044000D02*
X170658000Y-107444000D01*
X170058000Y-104444000D02*
X170658000Y-105044000D01*
X167408000Y-103544000D02*
X170308000Y-103544000D01*
X166958000Y-103994000D02*
X167408000Y-103544000D01*
X166158000Y-107244000D02*
X166158000Y-105244000D01*
X167408000Y-108944000D02*
X166958000Y-108494000D01*
X170308000Y-108944000D02*
X167408000Y-108944000D01*
X170758000Y-108494000D02*
X170308000Y-108944000D01*
X171558000Y-105244000D02*
X171558000Y-107244000D01*
X170308000Y-103544000D02*
X170758000Y-103994000D01*
D10*
X111614000Y-97110000D02*
X111614000Y-100410000D01*
X134214000Y-97110000D02*
X134214000Y-100410000D01*
X111614000Y-110410000D02*
X111614000Y-113710000D01*
X134214000Y-113710000D02*
X134214000Y-110410000D01*
X111614000Y-97110000D02*
X134214000Y-97110000D01*
X111614000Y-113710000D02*
X134214000Y-113710000D01*
D11*
X144938000Y-109128000D02*
X145638000Y-109128000D01*
X145638000Y-110328000D02*
X144938000Y-110328000D01*
X142978000Y-99734000D02*
X141978000Y-99734000D01*
X141978000Y-101434000D02*
X142978000Y-101434000D01*
X149444000Y-105269000D02*
X148244000Y-105269000D01*
X148244000Y-103519000D02*
X149444000Y-103519000D01*
X145720000Y-114542000D02*
X148420000Y-114542000D01*
X145720000Y-113042000D02*
X148420000Y-113042000D01*
X147220000Y-113942000D02*
X147220000Y-113692000D01*
X147220000Y-113692000D02*
X147070000Y-113842000D01*
X146970000Y-113442000D02*
X146970000Y-114142000D01*
X147320000Y-113792000D02*
X147670000Y-113792000D01*
X146970000Y-113792000D02*
X147320000Y-113442000D01*
X147320000Y-113442000D02*
X147320000Y-114142000D01*
X147320000Y-114142000D02*
X146970000Y-113792000D01*
X153373000Y-97755000D02*
X153373000Y-97805000D01*
X157523000Y-97755000D02*
X157523000Y-97900000D01*
X157523000Y-102905000D02*
X157523000Y-102760000D01*
X153373000Y-102905000D02*
X153373000Y-102760000D01*
X153373000Y-97755000D02*
X157523000Y-97755000D01*
X153373000Y-102905000D02*
X157523000Y-102905000D01*
X153373000Y-97805000D02*
X151973000Y-97805000D01*
X153254000Y-114413000D02*
X152054000Y-114413000D01*
X152054000Y-112663000D02*
X153254000Y-112663000D01*
X152149100Y-109688600D02*
X150949100Y-109688600D01*
X150949100Y-107938600D02*
X152149100Y-107938600D01*
X162718000Y-111922000D02*
X163418000Y-111922000D01*
X163418000Y-113122000D02*
X162718000Y-113122000D01*
X155880000Y-114796000D02*
X158580000Y-114796000D01*
X155880000Y-113296000D02*
X158580000Y-113296000D01*
X157380000Y-114196000D02*
X157380000Y-113946000D01*
X157380000Y-113946000D02*
X157230000Y-114096000D01*
X157130000Y-113696000D02*
X157130000Y-114396000D01*
X157480000Y-114046000D02*
X157830000Y-114046000D01*
X157130000Y-114046000D02*
X157480000Y-113696000D01*
X157480000Y-113696000D02*
X157480000Y-114396000D01*
X157480000Y-114396000D02*
X157130000Y-114046000D01*
D10*
X111614000Y-119970000D02*
X111614000Y-123270000D01*
X134214000Y-119970000D02*
X134214000Y-123270000D01*
X111614000Y-133270000D02*
X111614000Y-136570000D01*
X134214000Y-136570000D02*
X134214000Y-133270000D01*
X111614000Y-119970000D02*
X134214000Y-119970000D01*
X111614000Y-136570000D02*
X134214000Y-136570000D01*
D11*
X144938000Y-131988000D02*
X145638000Y-131988000D01*
X145638000Y-133188000D02*
X144938000Y-133188000D01*
X162718000Y-134782000D02*
X163418000Y-134782000D01*
X163418000Y-135982000D02*
X162718000Y-135982000D01*
X142978000Y-122594000D02*
X141978000Y-122594000D01*
X141978000Y-124294000D02*
X142978000Y-124294000D01*
X145720000Y-137402000D02*
X148420000Y-137402000D01*
X145720000Y-135902000D02*
X148420000Y-135902000D01*
X147220000Y-136802000D02*
X147220000Y-136552000D01*
X147220000Y-136552000D02*
X147070000Y-136702000D01*
X146970000Y-136302000D02*
X146970000Y-137002000D01*
X147320000Y-136652000D02*
X147670000Y-136652000D01*
X146970000Y-136652000D02*
X147320000Y-136302000D01*
X147320000Y-136302000D02*
X147320000Y-137002000D01*
X147320000Y-137002000D02*
X146970000Y-136652000D01*
X155880000Y-137656000D02*
X158580000Y-137656000D01*
X155880000Y-136156000D02*
X158580000Y-136156000D01*
X157380000Y-137056000D02*
X157380000Y-136806000D01*
X157380000Y-136806000D02*
X157230000Y-136956000D01*
X157130000Y-136556000D02*
X157130000Y-137256000D01*
X157480000Y-136906000D02*
X157830000Y-136906000D01*
X157130000Y-136906000D02*
X157480000Y-136556000D01*
X157480000Y-136556000D02*
X157480000Y-137256000D01*
X157480000Y-137256000D02*
X157130000Y-136906000D01*
X153254000Y-137273000D02*
X152054000Y-137273000D01*
X152054000Y-135523000D02*
X153254000Y-135523000D01*
X149444000Y-128129000D02*
X148244000Y-128129000D01*
X148244000Y-126379000D02*
X149444000Y-126379000D01*
X152149100Y-132548600D02*
X150949100Y-132548600D01*
X150949100Y-130798600D02*
X152149100Y-130798600D01*
X169858000Y-129104000D02*
G75*
G03X169858000Y-129104000I-1000000J0D01*
G01*
X167658000Y-127304000D02*
X170058000Y-127304000D01*
X167058000Y-127904000D02*
X167658000Y-127304000D01*
X167058000Y-130304000D02*
X167058000Y-127904000D01*
X167658000Y-130904000D02*
X167058000Y-130304000D01*
X170058000Y-130904000D02*
X167658000Y-130904000D01*
X170658000Y-130304000D02*
X170058000Y-130904000D01*
X170658000Y-127904000D02*
X170658000Y-130304000D01*
X170058000Y-127304000D02*
X170658000Y-127904000D01*
X167408000Y-126404000D02*
X170308000Y-126404000D01*
X166958000Y-126854000D02*
X167408000Y-126404000D01*
X166158000Y-130104000D02*
X166158000Y-128104000D01*
X167408000Y-131804000D02*
X166958000Y-131354000D01*
X170308000Y-131804000D02*
X167408000Y-131804000D01*
X170758000Y-131354000D02*
X170308000Y-131804000D01*
X171558000Y-128104000D02*
X171558000Y-130104000D01*
X170308000Y-126404000D02*
X170758000Y-126854000D01*
X153373000Y-120615000D02*
X153373000Y-120665000D01*
X157523000Y-120615000D02*
X157523000Y-120760000D01*
X157523000Y-125765000D02*
X157523000Y-125620000D01*
X153373000Y-125765000D02*
X153373000Y-125620000D01*
X153373000Y-120615000D02*
X157523000Y-120615000D01*
X153373000Y-125765000D02*
X157523000Y-125765000D01*
X153373000Y-120665000D02*
X151973000Y-120665000D01*
X145121334Y-62465143D02*
X145073715Y-62512762D01*
X144930858Y-62560381D01*
X144835620Y-62560381D01*
X144692762Y-62512762D01*
X144597524Y-62417524D01*
X144549905Y-62322286D01*
X144502286Y-62131810D01*
X144502286Y-61988952D01*
X144549905Y-61798476D01*
X144597524Y-61703238D01*
X144692762Y-61608000D01*
X144835620Y-61560381D01*
X144930858Y-61560381D01*
X145073715Y-61608000D01*
X145121334Y-61655619D01*
X146073715Y-62560381D02*
X145502286Y-62560381D01*
X145788000Y-62560381D02*
X145788000Y-61560381D01*
X145692762Y-61703238D01*
X145597524Y-61798476D01*
X145502286Y-61846095D01*
X151382434Y-61445981D02*
X151049100Y-60969790D01*
X150811005Y-61445981D02*
X150811005Y-60445981D01*
X151191958Y-60445981D01*
X151287196Y-60493600D01*
X151334815Y-60541219D01*
X151382434Y-60636457D01*
X151382434Y-60779314D01*
X151334815Y-60874552D01*
X151287196Y-60922171D01*
X151191958Y-60969790D01*
X150811005Y-60969790D01*
X151715767Y-60445981D02*
X152334815Y-60445981D01*
X152001481Y-60826933D01*
X152144339Y-60826933D01*
X152239577Y-60874552D01*
X152287196Y-60922171D01*
X152334815Y-61017410D01*
X152334815Y-61255505D01*
X152287196Y-61350743D01*
X152239577Y-61398362D01*
X152144339Y-61445981D01*
X151858624Y-61445981D01*
X151763386Y-61398362D01*
X151715767Y-61350743D01*
X148677334Y-57026381D02*
X148344000Y-56550190D01*
X148105905Y-57026381D02*
X148105905Y-56026381D01*
X148486858Y-56026381D01*
X148582096Y-56074000D01*
X148629715Y-56121619D01*
X148677334Y-56216857D01*
X148677334Y-56359714D01*
X148629715Y-56454952D01*
X148582096Y-56502571D01*
X148486858Y-56550190D01*
X148105905Y-56550190D01*
X149058286Y-56121619D02*
X149105905Y-56074000D01*
X149201143Y-56026381D01*
X149439239Y-56026381D01*
X149534477Y-56074000D01*
X149582096Y-56121619D01*
X149629715Y-56216857D01*
X149629715Y-56312095D01*
X149582096Y-56454952D01*
X149010667Y-57026381D01*
X149629715Y-57026381D01*
X146581905Y-66774381D02*
X146581905Y-65774381D01*
X146820000Y-65774381D01*
X146962858Y-65822000D01*
X147058096Y-65917238D01*
X147105715Y-66012476D01*
X147153334Y-66202952D01*
X147153334Y-66345810D01*
X147105715Y-66536286D01*
X147058096Y-66631524D01*
X146962858Y-66726762D01*
X146820000Y-66774381D01*
X146581905Y-66774381D01*
X148105715Y-66774381D02*
X147534286Y-66774381D01*
X147820000Y-66774381D02*
X147820000Y-65774381D01*
X147724762Y-65917238D01*
X147629524Y-66012476D01*
X147534286Y-66060095D01*
X156741905Y-67028381D02*
X156741905Y-66028381D01*
X156980000Y-66028381D01*
X157122858Y-66076000D01*
X157218096Y-66171238D01*
X157265715Y-66266476D01*
X157313334Y-66456952D01*
X157313334Y-66599810D01*
X157265715Y-66790286D01*
X157218096Y-66885524D01*
X157122858Y-66980762D01*
X156980000Y-67028381D01*
X156741905Y-67028381D01*
X157694286Y-66123619D02*
X157741905Y-66076000D01*
X157837143Y-66028381D01*
X158075239Y-66028381D01*
X158170477Y-66076000D01*
X158218096Y-66123619D01*
X158265715Y-66218857D01*
X158265715Y-66314095D01*
X158218096Y-66456952D01*
X157646667Y-67028381D01*
X158265715Y-67028381D01*
X162901334Y-65259143D02*
X162853715Y-65306762D01*
X162710858Y-65354381D01*
X162615620Y-65354381D01*
X162472762Y-65306762D01*
X162377524Y-65211524D01*
X162329905Y-65116286D01*
X162282286Y-64925810D01*
X162282286Y-64782952D01*
X162329905Y-64592476D01*
X162377524Y-64497238D01*
X162472762Y-64402000D01*
X162615620Y-64354381D01*
X162710858Y-64354381D01*
X162853715Y-64402000D01*
X162901334Y-64449619D01*
X163282286Y-64449619D02*
X163329905Y-64402000D01*
X163425143Y-64354381D01*
X163663239Y-64354381D01*
X163758477Y-64402000D01*
X163806096Y-64449619D01*
X163853715Y-64544857D01*
X163853715Y-64640095D01*
X163806096Y-64782952D01*
X163234667Y-65354381D01*
X163853715Y-65354381D01*
X152487334Y-66492381D02*
X152154000Y-66016190D01*
X151915905Y-66492381D02*
X151915905Y-65492381D01*
X152296858Y-65492381D01*
X152392096Y-65540000D01*
X152439715Y-65587619D01*
X152487334Y-65682857D01*
X152487334Y-65825714D01*
X152439715Y-65920952D01*
X152392096Y-65968571D01*
X152296858Y-66016190D01*
X151915905Y-66016190D01*
X153439715Y-66492381D02*
X152868286Y-66492381D01*
X153154000Y-66492381D02*
X153154000Y-65492381D01*
X153058762Y-65635238D01*
X152963524Y-65730476D01*
X152868286Y-65778095D01*
X167524667Y-57328762D02*
X167667524Y-57376381D01*
X167905620Y-57376381D01*
X168000858Y-57328762D01*
X168048477Y-57281143D01*
X168096096Y-57185905D01*
X168096096Y-57090667D01*
X168048477Y-56995429D01*
X168000858Y-56947810D01*
X167905620Y-56900190D01*
X167715143Y-56852571D01*
X167619905Y-56804952D01*
X167572286Y-56757333D01*
X167524667Y-56662095D01*
X167524667Y-56566857D01*
X167572286Y-56471619D01*
X167619905Y-56424000D01*
X167715143Y-56376381D01*
X167953239Y-56376381D01*
X168096096Y-56424000D01*
X168429429Y-56376381D02*
X168667524Y-57376381D01*
X168858001Y-56662095D01*
X169048477Y-57376381D01*
X169286572Y-56376381D01*
X170191334Y-57376381D02*
X169619905Y-57376381D01*
X169905619Y-57376381D02*
X169905619Y-56376381D01*
X169810381Y-56519238D01*
X169715143Y-56614476D01*
X169619905Y-56662095D01*
X154686095Y-50562381D02*
X154686095Y-51371905D01*
X154733714Y-51467143D01*
X154781333Y-51514762D01*
X154876571Y-51562381D01*
X155067048Y-51562381D01*
X155162286Y-51514762D01*
X155209905Y-51467143D01*
X155257524Y-51371905D01*
X155257524Y-50562381D01*
X156257524Y-51562381D02*
X155686095Y-51562381D01*
X155971809Y-51562381D02*
X155971809Y-50562381D01*
X155876571Y-50705238D01*
X155781333Y-50800476D01*
X155686095Y-50848095D01*
X142311334Y-53121143D02*
X142263715Y-53168762D01*
X142120858Y-53216381D01*
X142025620Y-53216381D01*
X141882762Y-53168762D01*
X141787524Y-53073524D01*
X141739905Y-52978286D01*
X141692286Y-52787810D01*
X141692286Y-52644952D01*
X141739905Y-52454476D01*
X141787524Y-52359238D01*
X141882762Y-52264000D01*
X142025620Y-52216381D01*
X142120858Y-52216381D01*
X142263715Y-52264000D01*
X142311334Y-52311619D01*
X142644667Y-52216381D02*
X143263715Y-52216381D01*
X142930381Y-52597333D01*
X143073239Y-52597333D01*
X143168477Y-52644952D01*
X143216096Y-52692571D01*
X143263715Y-52787810D01*
X143263715Y-53025905D01*
X143216096Y-53121143D01*
X143168477Y-53168762D01*
X143073239Y-53216381D01*
X142787524Y-53216381D01*
X142692286Y-53168762D01*
X142644667Y-53121143D01*
X137136286Y-63428571D02*
X137279143Y-63476190D01*
X137326762Y-63523810D01*
X137374381Y-63619048D01*
X137374381Y-63761905D01*
X137326762Y-63857143D01*
X137279143Y-63904762D01*
X137183905Y-63952381D01*
X136802952Y-63952381D01*
X136802952Y-62952381D01*
X137136286Y-62952381D01*
X137231524Y-63000000D01*
X137279143Y-63047619D01*
X137326762Y-63142857D01*
X137326762Y-63238095D01*
X137279143Y-63333333D01*
X137231524Y-63380952D01*
X137136286Y-63428571D01*
X136802952Y-63428571D01*
X137660095Y-62952381D02*
X138231524Y-62952381D01*
X137945809Y-63952381D02*
X137945809Y-62952381D01*
X139088667Y-63952381D02*
X138517238Y-63952381D01*
X138802952Y-63952381D02*
X138802952Y-62952381D01*
X138707714Y-63095238D01*
X138612476Y-63190476D01*
X138517238Y-63238095D01*
X137136286Y-86288571D02*
X137279143Y-86336190D01*
X137326762Y-86383810D01*
X137374381Y-86479048D01*
X137374381Y-86621905D01*
X137326762Y-86717143D01*
X137279143Y-86764762D01*
X137183905Y-86812381D01*
X136802952Y-86812381D01*
X136802952Y-85812381D01*
X137136286Y-85812381D01*
X137231524Y-85860000D01*
X137279143Y-85907619D01*
X137326762Y-86002857D01*
X137326762Y-86098095D01*
X137279143Y-86193333D01*
X137231524Y-86240952D01*
X137136286Y-86288571D01*
X136802952Y-86288571D01*
X137660095Y-85812381D02*
X138231524Y-85812381D01*
X137945809Y-86812381D02*
X137945809Y-85812381D01*
X139088667Y-86812381D02*
X138517238Y-86812381D01*
X138802952Y-86812381D02*
X138802952Y-85812381D01*
X138707714Y-85955238D01*
X138612476Y-86050476D01*
X138517238Y-86098095D01*
X167524667Y-80188762D02*
X167667524Y-80236381D01*
X167905620Y-80236381D01*
X168000858Y-80188762D01*
X168048477Y-80141143D01*
X168096096Y-80045905D01*
X168096096Y-79950667D01*
X168048477Y-79855429D01*
X168000858Y-79807810D01*
X167905620Y-79760190D01*
X167715143Y-79712571D01*
X167619905Y-79664952D01*
X167572286Y-79617333D01*
X167524667Y-79522095D01*
X167524667Y-79426857D01*
X167572286Y-79331619D01*
X167619905Y-79284000D01*
X167715143Y-79236381D01*
X167953239Y-79236381D01*
X168096096Y-79284000D01*
X168429429Y-79236381D02*
X168667524Y-80236381D01*
X168858001Y-79522095D01*
X169048477Y-80236381D01*
X169286572Y-79236381D01*
X170191334Y-80236381D02*
X169619905Y-80236381D01*
X169905619Y-80236381D02*
X169905619Y-79236381D01*
X169810381Y-79379238D01*
X169715143Y-79474476D01*
X169619905Y-79522095D01*
X162901334Y-88119143D02*
X162853715Y-88166762D01*
X162710858Y-88214381D01*
X162615620Y-88214381D01*
X162472762Y-88166762D01*
X162377524Y-88071524D01*
X162329905Y-87976286D01*
X162282286Y-87785810D01*
X162282286Y-87642952D01*
X162329905Y-87452476D01*
X162377524Y-87357238D01*
X162472762Y-87262000D01*
X162615620Y-87214381D01*
X162710858Y-87214381D01*
X162853715Y-87262000D01*
X162901334Y-87309619D01*
X163282286Y-87309619D02*
X163329905Y-87262000D01*
X163425143Y-87214381D01*
X163663239Y-87214381D01*
X163758477Y-87262000D01*
X163806096Y-87309619D01*
X163853715Y-87404857D01*
X163853715Y-87500095D01*
X163806096Y-87642952D01*
X163234667Y-88214381D01*
X163853715Y-88214381D01*
X142311334Y-75981143D02*
X142263715Y-76028762D01*
X142120858Y-76076381D01*
X142025620Y-76076381D01*
X141882762Y-76028762D01*
X141787524Y-75933524D01*
X141739905Y-75838286D01*
X141692286Y-75647810D01*
X141692286Y-75504952D01*
X141739905Y-75314476D01*
X141787524Y-75219238D01*
X141882762Y-75124000D01*
X142025620Y-75076381D01*
X142120858Y-75076381D01*
X142263715Y-75124000D01*
X142311334Y-75171619D01*
X142644667Y-75076381D02*
X143263715Y-75076381D01*
X142930381Y-75457333D01*
X143073239Y-75457333D01*
X143168477Y-75504952D01*
X143216096Y-75552571D01*
X143263715Y-75647810D01*
X143263715Y-75885905D01*
X143216096Y-75981143D01*
X143168477Y-76028762D01*
X143073239Y-76076381D01*
X142787524Y-76076381D01*
X142692286Y-76028762D01*
X142644667Y-75981143D01*
X148677334Y-79886381D02*
X148344000Y-79410190D01*
X148105905Y-79886381D02*
X148105905Y-78886381D01*
X148486858Y-78886381D01*
X148582096Y-78934000D01*
X148629715Y-78981619D01*
X148677334Y-79076857D01*
X148677334Y-79219714D01*
X148629715Y-79314952D01*
X148582096Y-79362571D01*
X148486858Y-79410190D01*
X148105905Y-79410190D01*
X149058286Y-78981619D02*
X149105905Y-78934000D01*
X149201143Y-78886381D01*
X149439239Y-78886381D01*
X149534477Y-78934000D01*
X149582096Y-78981619D01*
X149629715Y-79076857D01*
X149629715Y-79172095D01*
X149582096Y-79314952D01*
X149010667Y-79886381D01*
X149629715Y-79886381D01*
X154686095Y-73422381D02*
X154686095Y-74231905D01*
X154733714Y-74327143D01*
X154781333Y-74374762D01*
X154876571Y-74422381D01*
X155067048Y-74422381D01*
X155162286Y-74374762D01*
X155209905Y-74327143D01*
X155257524Y-74231905D01*
X155257524Y-73422381D01*
X156257524Y-74422381D02*
X155686095Y-74422381D01*
X155971809Y-74422381D02*
X155971809Y-73422381D01*
X155876571Y-73565238D01*
X155781333Y-73660476D01*
X155686095Y-73708095D01*
X145121334Y-85325143D02*
X145073715Y-85372762D01*
X144930858Y-85420381D01*
X144835620Y-85420381D01*
X144692762Y-85372762D01*
X144597524Y-85277524D01*
X144549905Y-85182286D01*
X144502286Y-84991810D01*
X144502286Y-84848952D01*
X144549905Y-84658476D01*
X144597524Y-84563238D01*
X144692762Y-84468000D01*
X144835620Y-84420381D01*
X144930858Y-84420381D01*
X145073715Y-84468000D01*
X145121334Y-84515619D01*
X146073715Y-85420381D02*
X145502286Y-85420381D01*
X145788000Y-85420381D02*
X145788000Y-84420381D01*
X145692762Y-84563238D01*
X145597524Y-84658476D01*
X145502286Y-84706095D01*
X152487334Y-89352381D02*
X152154000Y-88876190D01*
X151915905Y-89352381D02*
X151915905Y-88352381D01*
X152296858Y-88352381D01*
X152392096Y-88400000D01*
X152439715Y-88447619D01*
X152487334Y-88542857D01*
X152487334Y-88685714D01*
X152439715Y-88780952D01*
X152392096Y-88828571D01*
X152296858Y-88876190D01*
X151915905Y-88876190D01*
X153439715Y-89352381D02*
X152868286Y-89352381D01*
X153154000Y-89352381D02*
X153154000Y-88352381D01*
X153058762Y-88495238D01*
X152963524Y-88590476D01*
X152868286Y-88638095D01*
X151382434Y-84305981D02*
X151049100Y-83829790D01*
X150811005Y-84305981D02*
X150811005Y-83305981D01*
X151191958Y-83305981D01*
X151287196Y-83353600D01*
X151334815Y-83401219D01*
X151382434Y-83496457D01*
X151382434Y-83639314D01*
X151334815Y-83734552D01*
X151287196Y-83782171D01*
X151191958Y-83829790D01*
X150811005Y-83829790D01*
X151715767Y-83305981D02*
X152334815Y-83305981D01*
X152001481Y-83686933D01*
X152144339Y-83686933D01*
X152239577Y-83734552D01*
X152287196Y-83782171D01*
X152334815Y-83877410D01*
X152334815Y-84115505D01*
X152287196Y-84210743D01*
X152239577Y-84258362D01*
X152144339Y-84305981D01*
X151858624Y-84305981D01*
X151763386Y-84258362D01*
X151715767Y-84210743D01*
X146581905Y-89634381D02*
X146581905Y-88634381D01*
X146820000Y-88634381D01*
X146962858Y-88682000D01*
X147058096Y-88777238D01*
X147105715Y-88872476D01*
X147153334Y-89062952D01*
X147153334Y-89205810D01*
X147105715Y-89396286D01*
X147058096Y-89491524D01*
X146962858Y-89586762D01*
X146820000Y-89634381D01*
X146581905Y-89634381D01*
X148105715Y-89634381D02*
X147534286Y-89634381D01*
X147820000Y-89634381D02*
X147820000Y-88634381D01*
X147724762Y-88777238D01*
X147629524Y-88872476D01*
X147534286Y-88920095D01*
X156741905Y-89888381D02*
X156741905Y-88888381D01*
X156980000Y-88888381D01*
X157122858Y-88936000D01*
X157218096Y-89031238D01*
X157265715Y-89126476D01*
X157313334Y-89316952D01*
X157313334Y-89459810D01*
X157265715Y-89650286D01*
X157218096Y-89745524D01*
X157122858Y-89840762D01*
X156980000Y-89888381D01*
X156741905Y-89888381D01*
X157694286Y-88983619D02*
X157741905Y-88936000D01*
X157837143Y-88888381D01*
X158075239Y-88888381D01*
X158170477Y-88936000D01*
X158218096Y-88983619D01*
X158265715Y-89078857D01*
X158265715Y-89174095D01*
X158218096Y-89316952D01*
X157646667Y-89888381D01*
X158265715Y-89888381D01*
X167524667Y-103048762D02*
X167667524Y-103096381D01*
X167905620Y-103096381D01*
X168000858Y-103048762D01*
X168048477Y-103001143D01*
X168096096Y-102905905D01*
X168096096Y-102810667D01*
X168048477Y-102715429D01*
X168000858Y-102667810D01*
X167905620Y-102620190D01*
X167715143Y-102572571D01*
X167619905Y-102524952D01*
X167572286Y-102477333D01*
X167524667Y-102382095D01*
X167524667Y-102286857D01*
X167572286Y-102191619D01*
X167619905Y-102144000D01*
X167715143Y-102096381D01*
X167953239Y-102096381D01*
X168096096Y-102144000D01*
X168429429Y-102096381D02*
X168667524Y-103096381D01*
X168858001Y-102382095D01*
X169048477Y-103096381D01*
X169286572Y-102096381D01*
X170191334Y-103096381D02*
X169619905Y-103096381D01*
X169905619Y-103096381D02*
X169905619Y-102096381D01*
X169810381Y-102239238D01*
X169715143Y-102334476D01*
X169619905Y-102382095D01*
X137136286Y-109148571D02*
X137279143Y-109196190D01*
X137326762Y-109243810D01*
X137374381Y-109339048D01*
X137374381Y-109481905D01*
X137326762Y-109577143D01*
X137279143Y-109624762D01*
X137183905Y-109672381D01*
X136802952Y-109672381D01*
X136802952Y-108672381D01*
X137136286Y-108672381D01*
X137231524Y-108720000D01*
X137279143Y-108767619D01*
X137326762Y-108862857D01*
X137326762Y-108958095D01*
X137279143Y-109053333D01*
X137231524Y-109100952D01*
X137136286Y-109148571D01*
X136802952Y-109148571D01*
X137660095Y-108672381D02*
X138231524Y-108672381D01*
X137945809Y-109672381D02*
X137945809Y-108672381D01*
X139088667Y-109672381D02*
X138517238Y-109672381D01*
X138802952Y-109672381D02*
X138802952Y-108672381D01*
X138707714Y-108815238D01*
X138612476Y-108910476D01*
X138517238Y-108958095D01*
X145121334Y-108185143D02*
X145073715Y-108232762D01*
X144930858Y-108280381D01*
X144835620Y-108280381D01*
X144692762Y-108232762D01*
X144597524Y-108137524D01*
X144549905Y-108042286D01*
X144502286Y-107851810D01*
X144502286Y-107708952D01*
X144549905Y-107518476D01*
X144597524Y-107423238D01*
X144692762Y-107328000D01*
X144835620Y-107280381D01*
X144930858Y-107280381D01*
X145073715Y-107328000D01*
X145121334Y-107375619D01*
X146073715Y-108280381D02*
X145502286Y-108280381D01*
X145788000Y-108280381D02*
X145788000Y-107280381D01*
X145692762Y-107423238D01*
X145597524Y-107518476D01*
X145502286Y-107566095D01*
X142311334Y-98841143D02*
X142263715Y-98888762D01*
X142120858Y-98936381D01*
X142025620Y-98936381D01*
X141882762Y-98888762D01*
X141787524Y-98793524D01*
X141739905Y-98698286D01*
X141692286Y-98507810D01*
X141692286Y-98364952D01*
X141739905Y-98174476D01*
X141787524Y-98079238D01*
X141882762Y-97984000D01*
X142025620Y-97936381D01*
X142120858Y-97936381D01*
X142263715Y-97984000D01*
X142311334Y-98031619D01*
X142644667Y-97936381D02*
X143263715Y-97936381D01*
X142930381Y-98317333D01*
X143073239Y-98317333D01*
X143168477Y-98364952D01*
X143216096Y-98412571D01*
X143263715Y-98507810D01*
X143263715Y-98745905D01*
X143216096Y-98841143D01*
X143168477Y-98888762D01*
X143073239Y-98936381D01*
X142787524Y-98936381D01*
X142692286Y-98888762D01*
X142644667Y-98841143D01*
X148677334Y-102746381D02*
X148344000Y-102270190D01*
X148105905Y-102746381D02*
X148105905Y-101746381D01*
X148486858Y-101746381D01*
X148582096Y-101794000D01*
X148629715Y-101841619D01*
X148677334Y-101936857D01*
X148677334Y-102079714D01*
X148629715Y-102174952D01*
X148582096Y-102222571D01*
X148486858Y-102270190D01*
X148105905Y-102270190D01*
X149058286Y-101841619D02*
X149105905Y-101794000D01*
X149201143Y-101746381D01*
X149439239Y-101746381D01*
X149534477Y-101794000D01*
X149582096Y-101841619D01*
X149629715Y-101936857D01*
X149629715Y-102032095D01*
X149582096Y-102174952D01*
X149010667Y-102746381D01*
X149629715Y-102746381D01*
X146581905Y-112494381D02*
X146581905Y-111494381D01*
X146820000Y-111494381D01*
X146962858Y-111542000D01*
X147058096Y-111637238D01*
X147105715Y-111732476D01*
X147153334Y-111922952D01*
X147153334Y-112065810D01*
X147105715Y-112256286D01*
X147058096Y-112351524D01*
X146962858Y-112446762D01*
X146820000Y-112494381D01*
X146581905Y-112494381D01*
X148105715Y-112494381D02*
X147534286Y-112494381D01*
X147820000Y-112494381D02*
X147820000Y-111494381D01*
X147724762Y-111637238D01*
X147629524Y-111732476D01*
X147534286Y-111780095D01*
X154686095Y-96282381D02*
X154686095Y-97091905D01*
X154733714Y-97187143D01*
X154781333Y-97234762D01*
X154876571Y-97282381D01*
X155067048Y-97282381D01*
X155162286Y-97234762D01*
X155209905Y-97187143D01*
X155257524Y-97091905D01*
X155257524Y-96282381D01*
X156257524Y-97282381D02*
X155686095Y-97282381D01*
X155971809Y-97282381D02*
X155971809Y-96282381D01*
X155876571Y-96425238D01*
X155781333Y-96520476D01*
X155686095Y-96568095D01*
X152487334Y-112212381D02*
X152154000Y-111736190D01*
X151915905Y-112212381D02*
X151915905Y-111212381D01*
X152296858Y-111212381D01*
X152392096Y-111260000D01*
X152439715Y-111307619D01*
X152487334Y-111402857D01*
X152487334Y-111545714D01*
X152439715Y-111640952D01*
X152392096Y-111688571D01*
X152296858Y-111736190D01*
X151915905Y-111736190D01*
X153439715Y-112212381D02*
X152868286Y-112212381D01*
X153154000Y-112212381D02*
X153154000Y-111212381D01*
X153058762Y-111355238D01*
X152963524Y-111450476D01*
X152868286Y-111498095D01*
X151382434Y-107165981D02*
X151049100Y-106689790D01*
X150811005Y-107165981D02*
X150811005Y-106165981D01*
X151191958Y-106165981D01*
X151287196Y-106213600D01*
X151334815Y-106261219D01*
X151382434Y-106356457D01*
X151382434Y-106499314D01*
X151334815Y-106594552D01*
X151287196Y-106642171D01*
X151191958Y-106689790D01*
X150811005Y-106689790D01*
X151715767Y-106165981D02*
X152334815Y-106165981D01*
X152001481Y-106546933D01*
X152144339Y-106546933D01*
X152239577Y-106594552D01*
X152287196Y-106642171D01*
X152334815Y-106737410D01*
X152334815Y-106975505D01*
X152287196Y-107070743D01*
X152239577Y-107118362D01*
X152144339Y-107165981D01*
X151858624Y-107165981D01*
X151763386Y-107118362D01*
X151715767Y-107070743D01*
X162901334Y-110979143D02*
X162853715Y-111026762D01*
X162710858Y-111074381D01*
X162615620Y-111074381D01*
X162472762Y-111026762D01*
X162377524Y-110931524D01*
X162329905Y-110836286D01*
X162282286Y-110645810D01*
X162282286Y-110502952D01*
X162329905Y-110312476D01*
X162377524Y-110217238D01*
X162472762Y-110122000D01*
X162615620Y-110074381D01*
X162710858Y-110074381D01*
X162853715Y-110122000D01*
X162901334Y-110169619D01*
X163282286Y-110169619D02*
X163329905Y-110122000D01*
X163425143Y-110074381D01*
X163663239Y-110074381D01*
X163758477Y-110122000D01*
X163806096Y-110169619D01*
X163853715Y-110264857D01*
X163853715Y-110360095D01*
X163806096Y-110502952D01*
X163234667Y-111074381D01*
X163853715Y-111074381D01*
X156741905Y-112748381D02*
X156741905Y-111748381D01*
X156980000Y-111748381D01*
X157122858Y-111796000D01*
X157218096Y-111891238D01*
X157265715Y-111986476D01*
X157313334Y-112176952D01*
X157313334Y-112319810D01*
X157265715Y-112510286D01*
X157218096Y-112605524D01*
X157122858Y-112700762D01*
X156980000Y-112748381D01*
X156741905Y-112748381D01*
X157694286Y-111843619D02*
X157741905Y-111796000D01*
X157837143Y-111748381D01*
X158075239Y-111748381D01*
X158170477Y-111796000D01*
X158218096Y-111843619D01*
X158265715Y-111938857D01*
X158265715Y-112034095D01*
X158218096Y-112176952D01*
X157646667Y-112748381D01*
X158265715Y-112748381D01*
X137136286Y-132008571D02*
X137279143Y-132056190D01*
X137326762Y-132103810D01*
X137374381Y-132199048D01*
X137374381Y-132341905D01*
X137326762Y-132437143D01*
X137279143Y-132484762D01*
X137183905Y-132532381D01*
X136802952Y-132532381D01*
X136802952Y-131532381D01*
X137136286Y-131532381D01*
X137231524Y-131580000D01*
X137279143Y-131627619D01*
X137326762Y-131722857D01*
X137326762Y-131818095D01*
X137279143Y-131913333D01*
X137231524Y-131960952D01*
X137136286Y-132008571D01*
X136802952Y-132008571D01*
X137660095Y-131532381D02*
X138231524Y-131532381D01*
X137945809Y-132532381D02*
X137945809Y-131532381D01*
X139088667Y-132532381D02*
X138517238Y-132532381D01*
X138802952Y-132532381D02*
X138802952Y-131532381D01*
X138707714Y-131675238D01*
X138612476Y-131770476D01*
X138517238Y-131818095D01*
X145121334Y-131045143D02*
X145073715Y-131092762D01*
X144930858Y-131140381D01*
X144835620Y-131140381D01*
X144692762Y-131092762D01*
X144597524Y-130997524D01*
X144549905Y-130902286D01*
X144502286Y-130711810D01*
X144502286Y-130568952D01*
X144549905Y-130378476D01*
X144597524Y-130283238D01*
X144692762Y-130188000D01*
X144835620Y-130140381D01*
X144930858Y-130140381D01*
X145073715Y-130188000D01*
X145121334Y-130235619D01*
X146073715Y-131140381D02*
X145502286Y-131140381D01*
X145788000Y-131140381D02*
X145788000Y-130140381D01*
X145692762Y-130283238D01*
X145597524Y-130378476D01*
X145502286Y-130426095D01*
X162901334Y-133839143D02*
X162853715Y-133886762D01*
X162710858Y-133934381D01*
X162615620Y-133934381D01*
X162472762Y-133886762D01*
X162377524Y-133791524D01*
X162329905Y-133696286D01*
X162282286Y-133505810D01*
X162282286Y-133362952D01*
X162329905Y-133172476D01*
X162377524Y-133077238D01*
X162472762Y-132982000D01*
X162615620Y-132934381D01*
X162710858Y-132934381D01*
X162853715Y-132982000D01*
X162901334Y-133029619D01*
X163282286Y-133029619D02*
X163329905Y-132982000D01*
X163425143Y-132934381D01*
X163663239Y-132934381D01*
X163758477Y-132982000D01*
X163806096Y-133029619D01*
X163853715Y-133124857D01*
X163853715Y-133220095D01*
X163806096Y-133362952D01*
X163234667Y-133934381D01*
X163853715Y-133934381D01*
X142311334Y-121701143D02*
X142263715Y-121748762D01*
X142120858Y-121796381D01*
X142025620Y-121796381D01*
X141882762Y-121748762D01*
X141787524Y-121653524D01*
X141739905Y-121558286D01*
X141692286Y-121367810D01*
X141692286Y-121224952D01*
X141739905Y-121034476D01*
X141787524Y-120939238D01*
X141882762Y-120844000D01*
X142025620Y-120796381D01*
X142120858Y-120796381D01*
X142263715Y-120844000D01*
X142311334Y-120891619D01*
X142644667Y-120796381D02*
X143263715Y-120796381D01*
X142930381Y-121177333D01*
X143073239Y-121177333D01*
X143168477Y-121224952D01*
X143216096Y-121272571D01*
X143263715Y-121367810D01*
X143263715Y-121605905D01*
X143216096Y-121701143D01*
X143168477Y-121748762D01*
X143073239Y-121796381D01*
X142787524Y-121796381D01*
X142692286Y-121748762D01*
X142644667Y-121701143D01*
X146581905Y-135354381D02*
X146581905Y-134354381D01*
X146820000Y-134354381D01*
X146962858Y-134402000D01*
X147058096Y-134497238D01*
X147105715Y-134592476D01*
X147153334Y-134782952D01*
X147153334Y-134925810D01*
X147105715Y-135116286D01*
X147058096Y-135211524D01*
X146962858Y-135306762D01*
X146820000Y-135354381D01*
X146581905Y-135354381D01*
X148105715Y-135354381D02*
X147534286Y-135354381D01*
X147820000Y-135354381D02*
X147820000Y-134354381D01*
X147724762Y-134497238D01*
X147629524Y-134592476D01*
X147534286Y-134640095D01*
X156741905Y-135608381D02*
X156741905Y-134608381D01*
X156980000Y-134608381D01*
X157122858Y-134656000D01*
X157218096Y-134751238D01*
X157265715Y-134846476D01*
X157313334Y-135036952D01*
X157313334Y-135179810D01*
X157265715Y-135370286D01*
X157218096Y-135465524D01*
X157122858Y-135560762D01*
X156980000Y-135608381D01*
X156741905Y-135608381D01*
X157694286Y-134703619D02*
X157741905Y-134656000D01*
X157837143Y-134608381D01*
X158075239Y-134608381D01*
X158170477Y-134656000D01*
X158218096Y-134703619D01*
X158265715Y-134798857D01*
X158265715Y-134894095D01*
X158218096Y-135036952D01*
X157646667Y-135608381D01*
X158265715Y-135608381D01*
X152487334Y-135072381D02*
X152154000Y-134596190D01*
X151915905Y-135072381D02*
X151915905Y-134072381D01*
X152296858Y-134072381D01*
X152392096Y-134120000D01*
X152439715Y-134167619D01*
X152487334Y-134262857D01*
X152487334Y-134405714D01*
X152439715Y-134500952D01*
X152392096Y-134548571D01*
X152296858Y-134596190D01*
X151915905Y-134596190D01*
X153439715Y-135072381D02*
X152868286Y-135072381D01*
X153154000Y-135072381D02*
X153154000Y-134072381D01*
X153058762Y-134215238D01*
X152963524Y-134310476D01*
X152868286Y-134358095D01*
X148677334Y-125606381D02*
X148344000Y-125130190D01*
X148105905Y-125606381D02*
X148105905Y-124606381D01*
X148486858Y-124606381D01*
X148582096Y-124654000D01*
X148629715Y-124701619D01*
X148677334Y-124796857D01*
X148677334Y-124939714D01*
X148629715Y-125034952D01*
X148582096Y-125082571D01*
X148486858Y-125130190D01*
X148105905Y-125130190D01*
X149058286Y-124701619D02*
X149105905Y-124654000D01*
X149201143Y-124606381D01*
X149439239Y-124606381D01*
X149534477Y-124654000D01*
X149582096Y-124701619D01*
X149629715Y-124796857D01*
X149629715Y-124892095D01*
X149582096Y-125034952D01*
X149010667Y-125606381D01*
X149629715Y-125606381D01*
X151382434Y-130025981D02*
X151049100Y-129549790D01*
X150811005Y-130025981D02*
X150811005Y-129025981D01*
X151191958Y-129025981D01*
X151287196Y-129073600D01*
X151334815Y-129121219D01*
X151382434Y-129216457D01*
X151382434Y-129359314D01*
X151334815Y-129454552D01*
X151287196Y-129502171D01*
X151191958Y-129549790D01*
X150811005Y-129549790D01*
X151715767Y-129025981D02*
X152334815Y-129025981D01*
X152001481Y-129406933D01*
X152144339Y-129406933D01*
X152239577Y-129454552D01*
X152287196Y-129502171D01*
X152334815Y-129597410D01*
X152334815Y-129835505D01*
X152287196Y-129930743D01*
X152239577Y-129978362D01*
X152144339Y-130025981D01*
X151858624Y-130025981D01*
X151763386Y-129978362D01*
X151715767Y-129930743D01*
X167524667Y-125908762D02*
X167667524Y-125956381D01*
X167905620Y-125956381D01*
X168000858Y-125908762D01*
X168048477Y-125861143D01*
X168096096Y-125765905D01*
X168096096Y-125670667D01*
X168048477Y-125575429D01*
X168000858Y-125527810D01*
X167905620Y-125480190D01*
X167715143Y-125432571D01*
X167619905Y-125384952D01*
X167572286Y-125337333D01*
X167524667Y-125242095D01*
X167524667Y-125146857D01*
X167572286Y-125051619D01*
X167619905Y-125004000D01*
X167715143Y-124956381D01*
X167953239Y-124956381D01*
X168096096Y-125004000D01*
X168429429Y-124956381D02*
X168667524Y-125956381D01*
X168858001Y-125242095D01*
X169048477Y-125956381D01*
X169286572Y-124956381D01*
X170191334Y-125956381D02*
X169619905Y-125956381D01*
X169905619Y-125956381D02*
X169905619Y-124956381D01*
X169810381Y-125099238D01*
X169715143Y-125194476D01*
X169619905Y-125242095D01*
X154686095Y-119142381D02*
X154686095Y-119951905D01*
X154733714Y-120047143D01*
X154781333Y-120094762D01*
X154876571Y-120142381D01*
X155067048Y-120142381D01*
X155162286Y-120094762D01*
X155209905Y-120047143D01*
X155257524Y-119951905D01*
X155257524Y-119142381D01*
X156257524Y-120142381D02*
X155686095Y-120142381D01*
X155971809Y-120142381D02*
X155971809Y-119142381D01*
X155876571Y-119285238D01*
X155781333Y-119380476D01*
X155686095Y-119428095D01*
M02*
