G04 #@! TF.FileFunction,Soldermask,Top*
%FSLAX46Y46*%
G04 Gerber Fmt 4.6, Leading zero omitted, Abs format (unit mm)*
G04 Created by KiCad (PCBNEW 4.0.5+dfsg1-4) date Tue Jun 30 20:55:17 2020*
%MOMM*%
%LPD*%
G01*
G04 APERTURE LIST*
%ADD10C,0.100000*%
%ADD11R,0.901600X0.851600*%
%ADD12R,0.801600X1.401600*%
%ADD13R,1.300480X1.300480*%
%ADD14R,1.901600X1.201600*%
%ADD15R,1.651600X0.701600*%
%ADD16R,1.101600X1.351600*%
%ADD17R,3.101600X4.301600*%
G04 APERTURE END LIST*
D10*
D11*
X144538000Y-64008000D03*
X146038000Y-64008000D03*
D12*
X150599100Y-63093600D03*
X152499100Y-63093600D03*
X147894000Y-58674000D03*
X149794000Y-58674000D03*
D13*
X148369020Y-68072000D03*
X146270980Y-68072000D03*
X158529020Y-68326000D03*
X156430980Y-68326000D03*
D11*
X162318000Y-66802000D03*
X163818000Y-66802000D03*
D12*
X151704000Y-67818000D03*
X153604000Y-67818000D03*
D14*
X165758000Y-58674000D03*
X171958000Y-58674000D03*
X165758000Y-62374000D03*
X171958000Y-62374000D03*
D15*
X152748000Y-52705000D03*
X152748000Y-53975000D03*
X152748000Y-55245000D03*
X152748000Y-56515000D03*
X158148000Y-56515000D03*
X158148000Y-55245000D03*
X158148000Y-53975000D03*
X158148000Y-52705000D03*
D16*
X141478000Y-54864000D03*
X143478000Y-54864000D03*
D17*
X137414000Y-59690000D03*
X108414000Y-59690000D03*
X137414000Y-82550000D03*
X108414000Y-82550000D03*
D14*
X165758000Y-81534000D03*
X171958000Y-81534000D03*
X165758000Y-85234000D03*
X171958000Y-85234000D03*
D11*
X162318000Y-89662000D03*
X163818000Y-89662000D03*
D16*
X141478000Y-77724000D03*
X143478000Y-77724000D03*
D12*
X147894000Y-81534000D03*
X149794000Y-81534000D03*
D15*
X152748000Y-75565000D03*
X152748000Y-76835000D03*
X152748000Y-78105000D03*
X152748000Y-79375000D03*
X158148000Y-79375000D03*
X158148000Y-78105000D03*
X158148000Y-76835000D03*
X158148000Y-75565000D03*
D11*
X144538000Y-86868000D03*
X146038000Y-86868000D03*
D12*
X151704000Y-90678000D03*
X153604000Y-90678000D03*
X150599100Y-85953600D03*
X152499100Y-85953600D03*
D13*
X148369020Y-90932000D03*
X146270980Y-90932000D03*
X158529020Y-91186000D03*
X156430980Y-91186000D03*
D14*
X165758000Y-104394000D03*
X171958000Y-104394000D03*
X165758000Y-108094000D03*
X171958000Y-108094000D03*
D17*
X137414000Y-105410000D03*
X108414000Y-105410000D03*
D11*
X144538000Y-109728000D03*
X146038000Y-109728000D03*
D16*
X141478000Y-100584000D03*
X143478000Y-100584000D03*
D12*
X147894000Y-104394000D03*
X149794000Y-104394000D03*
D13*
X148369020Y-113792000D03*
X146270980Y-113792000D03*
D15*
X152748000Y-98425000D03*
X152748000Y-99695000D03*
X152748000Y-100965000D03*
X152748000Y-102235000D03*
X158148000Y-102235000D03*
X158148000Y-100965000D03*
X158148000Y-99695000D03*
X158148000Y-98425000D03*
D12*
X151704000Y-113538000D03*
X153604000Y-113538000D03*
X150599100Y-108813600D03*
X152499100Y-108813600D03*
D11*
X162318000Y-112522000D03*
X163818000Y-112522000D03*
D13*
X158529020Y-114046000D03*
X156430980Y-114046000D03*
D17*
X137414000Y-128270000D03*
X108414000Y-128270000D03*
D11*
X144538000Y-132588000D03*
X146038000Y-132588000D03*
X162318000Y-135382000D03*
X163818000Y-135382000D03*
D16*
X141478000Y-123444000D03*
X143478000Y-123444000D03*
D13*
X148369020Y-136652000D03*
X146270980Y-136652000D03*
X158529020Y-136906000D03*
X156430980Y-136906000D03*
D12*
X151704000Y-136398000D03*
X153604000Y-136398000D03*
X147894000Y-127254000D03*
X149794000Y-127254000D03*
X150599100Y-131673600D03*
X152499100Y-131673600D03*
D14*
X165758000Y-127254000D03*
X171958000Y-127254000D03*
X165758000Y-130954000D03*
X171958000Y-130954000D03*
D15*
X152748000Y-121285000D03*
X152748000Y-122555000D03*
X152748000Y-123825000D03*
X152748000Y-125095000D03*
X158148000Y-125095000D03*
X158148000Y-123825000D03*
X158148000Y-122555000D03*
X158148000Y-121285000D03*
M02*
