M48
;DRILL file {KiCad 4.0.5+dfsg1-4} date Tue Jun 30 20:55:19 2020
;FORMAT={-:-/ absolute / inch / decimal}
FMAT,2
INCH,TZ
T1C0.025
%
G90
G05
M72
T1
X4.24Y-2.77
X4.24Y-2.83
X4.24Y-3.67
X4.24Y-3.73
X4.24Y-4.57
X4.24Y-4.63
X4.27Y-2.77
X4.27Y-2.83
X4.27Y-3.67
X4.27Y-3.73
X4.27Y-4.57
X4.27Y-4.63
X4.3Y-2.77
X4.3Y-2.83
X4.3Y-3.67
X4.3Y-3.73
X4.3Y-4.57
X4.3Y-4.63
X4.84Y-2.77
X4.84Y-2.83
X4.84Y-3.67
X4.84Y-3.73
X4.84Y-4.57
X4.84Y-4.63
X4.87Y-2.77
X4.87Y-2.83
X4.87Y-3.67
X4.87Y-3.73
X4.87Y-4.57
X4.87Y-4.63
X4.9Y-2.77
X4.9Y-2.83
X4.9Y-3.67
X4.9Y-3.73
X4.9Y-4.57
X4.9Y-4.63
X5.44Y-2.77
X5.44Y-2.83
X5.44Y-3.67
X5.44Y-3.73
X5.44Y-4.57
X5.44Y-4.63
X5.47Y-2.77
X5.47Y-2.83
X5.47Y-3.67
X5.47Y-3.73
X5.47Y-4.57
X5.47Y-4.63
X5.5Y-2.77
X5.5Y-2.83
X5.5Y-3.67
X5.5Y-3.73
X5.5Y-4.57
X5.5Y-4.63
X6.24Y-2.77
X6.24Y-2.83
X6.24Y-3.67
X6.24Y-3.73
X6.24Y-4.57
X6.24Y-4.63
X6.27Y-2.77
X6.27Y-2.83
X6.27Y-3.67
X6.27Y-3.73
X6.27Y-4.57
X6.27Y-4.63
X6.3Y-2.77
X6.3Y-2.83
X6.3Y-3.67
X6.3Y-3.73
X6.3Y-4.57
X6.3Y-4.63
X6.84Y-2.77
X6.84Y-2.83
X6.84Y-3.67
X6.84Y-3.73
X6.84Y-4.57
X6.84Y-4.63
X6.87Y-2.77
X6.87Y-2.83
X6.87Y-3.67
X6.87Y-3.73
X6.87Y-4.57
X6.87Y-4.63
X6.9Y-2.77
X6.9Y-2.83
X6.9Y-3.67
X6.9Y-3.73
X6.9Y-4.57
X6.9Y-4.63
X7.44Y-2.77
X7.44Y-2.83
X7.44Y-3.67
X7.44Y-3.73
X7.44Y-4.57
X7.44Y-4.63
X7.47Y-2.77
X7.47Y-2.83
X7.47Y-3.67
X7.47Y-3.73
X7.47Y-4.57
X7.47Y-4.63
X7.5Y-2.77
X7.5Y-2.83
X7.5Y-3.67
X7.5Y-3.73
X7.5Y-4.57
X7.5Y-4.63
T0
M30
